<svg xmlns="http://www.w3.org/2000/svg" width="120" height="120" viewBox="0 0 120 120">
  <g fill="none" fill-rule="evenodd" transform="translate(13 15)">
    <path stroke="#4D4C96" stroke-linecap="round" stroke-linejoin="round" stroke-width="4" d="M55 .255942857L55 89.9345143M39.5671636 41.4336857L8.23175455 26.6466857M8.23219545 63.3923143L39.7197182 47.7793857"/>
    <path fill="#4D4C96" fill-rule="nonzero" d="M0.102272727,63.3923143 C0.102272727,67.9028143 3.74197727,71.5586 8.23263636,71.5586 C12.7232955,71.5586 16.363,67.9028143 16.363,63.3923143 C16.363,58.8818143 12.7232955,55.2260286 8.23263636,55.2260286 C3.74197727,55.2260286 0.102272727,58.8818143 0.102272727,63.3923143"/>
    <path stroke="#4D4C96" stroke-linecap="round" stroke-linejoin="round" stroke-width="4" d="M0.102272727,63.3923143 C0.102272727,67.9028143 3.74197727,71.5586 8.23263636,71.5586 C12.7232955,71.5586 16.363,67.9028143 16.363,63.3923143 C16.363,58.8818143 12.7232955,55.2260286 8.23263636,55.2260286 C3.74197727,55.2260286 0.102272727,58.8818143 0.102272727,63.3923143 L0.102272727,63.3923143 Z"/>
    <path fill="#4D4C96" fill-rule="nonzero" d="M0.102272727,26.6460214 C0.102272727,31.1565214 3.74197727,34.8123071 8.23263636,34.8123071 C12.7232955,34.8123071 16.363,31.1565214 16.363,26.6460214 C16.363,22.1355214 12.7232955,18.4797357 8.23263636,18.4797357 C3.74197727,18.4797357 0.102272727,22.1355214 0.102272727,26.6460214"/>
    <path stroke="#4D4C96" stroke-linecap="round" stroke-linejoin="round" stroke-width="4" d="M0.102272727,26.6460214 C0.102272727,31.1565214 3.74197727,34.8123071 8.23263636,34.8123071 C12.7232955,34.8123071 16.363,31.1565214 16.363,26.6460214 C16.363,22.1355214 12.7232955,18.4797357 8.23263636,18.4797357 C3.74197727,18.4797357 0.102272727,22.1355214 0.102272727,26.6460214 L0.102272727,26.6460214 Z"/>
    <path fill="#4D4C96" fill-rule="nonzero" d="M39.8795477,16.4388286 C35.3888886,16.4388286 31.7491841,12.7830429 31.7491841,8.27254286 C31.7491841,3.76204286 35.3888886,0.106257143 39.8795477,0.106257143 L39.8795477,16.4388286 Z"/>
    <path stroke="#4D4C96" stroke-linecap="round" stroke-linejoin="round" stroke-width="4" d="M39.8795477,16.4388286 C35.3888886,16.4388286 31.7491841,12.7830429 31.7491841,8.27254286 C31.7491841,3.76204286 35.3888886,0.106257143 39.8795477,0.106257143 L39.8795477,16.4388286 L39.8795477,16.4388286 Z"/>
    <path fill="#4D4C96" fill-rule="nonzero" d="M39.8795477,73.5995071 C35.3888886,73.5995071 31.7491841,77.2552929 31.7491841,81.7657929 C31.7491841,86.2762929 35.3888886,89.9320786 39.8795477,89.9320786 L39.8795477,73.5995071 Z"/>
    <path stroke="#4D4C96" stroke-linecap="round" stroke-linejoin="round" stroke-width="4" d="M39.8795477,73.5995071 C35.3888886,73.5995071 31.7491841,77.2552929 31.7491841,81.7657929 C31.7491841,86.2762929 35.3888886,89.9320786 39.8795477,89.9320786 L39.8795477,73.5995071 L39.8795477,73.5995071 Z"/>
    <path fill="#4D4C96" fill-rule="nonzero" d="M39.8513295,61.0391929 C33.5154659,58.5038357 29.0402386,52.2861214 29.0402386,45.0188357 C29.0402386,37.7958357 33.4647614,31.6091214 39.7388977,29.0449786 L39.8513295,61.0391929 Z"/>
    <path stroke="#4D4C96" stroke-linecap="round" stroke-linejoin="round" stroke-width="4" d="M39.8513295 61.0391929C33.5154659 58.5038357 29.0402386 52.2861214 29.0402386 45.0188357 29.0402386 37.7958357 33.4647614 31.6091214 39.7388977 29.0449786L39.8513295 61.0391929 39.8513295 61.0391929zM55.3113659 40.7200214L93.9283886 22.6758071M93.9286091 67.5148714L55.3115864 48.4631571"/>
  </g>
</svg>
